<?xml version="1.0" encoding="UTF-8"?>
<svg width="396px" height="256px" viewBox="0 0 396 256" version="1.1" xmlns="http://www.w3.org/2000/svg" xmlns:xlink="http://www.w3.org/1999/xlink">
    <!-- Generator: Sketch 61.2 (89653) - https://sketch.com -->
    <title>lh-logo-full-reversed</title>
    <desc>Created with Sketch.</desc>
    <g id="Page-1" stroke="none" stroke-width="1" fill="none" fill-rule="evenodd">
        <g id="lh-logo-full-reversed" fill-rule="nonzero">
            <g id="Layer_2" fill="#A50D73">
                <polygon id="Combined-Shape" points="110.5 2.84217094e-14 221 63.8 221 103 215 103 215 67.2 110.5 6.9 6 67.2 6 187.9 110.5 248.1 215 187.8 215 151 221 151 221 191.4 110.5 255.2 0 191.4 0 63.8"></polygon>
            </g>
            <g id="Layer_1" transform="translate(65.000000, 107.000000)">
                <g id="Page-1_1_">
                    <g id="Desktop-HD_1_">
                        <g id="Lean-Hive_1_">
                            <polygon id="Path_1_" fill="#161F35" points="0 39.6 28 39.6 28 33.3 7.1 33.3 7.1 0.6 0 0.6"></polygon>
                            <polygon id="Path" fill="#161F35" points="238 39.6 245 39.6 245 33.3 245 0.6 238 0.6"></polygon>
                            <polyline id="Path" fill="#161F35" points="36 16.6 36 39.6 66 39.6 66 33.4 43.1 33.4 43.1 22.8 63.2 22.8 63.2 16.6 54.7 16.6 43.1 16.6 36 16.6"></polyline>
                            <polygon id="Path" fill="#A50D73" points="66 0.6 37 0.6 37 6.6 66 6.6"></polygon>
                            <path d="M95.7,0.6 L89.3,0.6 L72,40.6 L79.1,40.6 C85.9,24.4 85.2,25.9 92.4,8.9 C99.6,25.7 99,24.5 105.7,40.6 L113,40.6 L95.7,0.6" id="Path" fill="#161F35" opacity="0.99"></path>
                            <path d="M269.8,40.6 L276.2,40.5 L293,0.6 L285.9,0.7 C279.3,16.8 280,15.3 273,32.3 C265.6,15.7 266.2,16.9 259.3,1 L252,1.1 L269.8,40.6" id="Path" fill="#161F35" opacity="0.99"></path>
                            <polygon id="Path" fill="#161F35" points="149.3 27.5 128.4 0.6 122 0.6 122 39.6 128.8 39.6 128.8 11.8 150.3 39.6 156 39.6 156 0.6 149.3 0.6"></polygon>
                            <polygon id="Path" fill="#161F35" points="182 26.6 182 19.6 165 19.6 165 26.6"></polygon>
                            <polygon id="Path" fill="#A50D73" points="330 0.6 301 0.6 301 6.6 330 6.6"></polygon>
                            <polygon id="Path" fill="#161F35" points="301 16.6 301 39.6 331 39.6 331 33.4 308.1 33.4 308.1 22.8 328.2 22.8 328.2 16.6 320.1 16.6 308.1 16.6"></polygon>
                            <polygon id="Path" fill="#161F35" points="192 39.6 199 39.6 199 33.3 199 0.6 192 0.6"></polygon>
                            <polygon id="Path" fill="#161F35" points="192 39.6 199 39.6 199 33.3 199 0.6 192 0.6"></polygon>
                            <polygon id="Path" fill="#161F35" points="220 39.6 227 39.6 227 33.3 227 0.6 220 0.6"></polygon>
                            <polygon id="Path" fill="#161F35" points="221 18.6 192 18.6 192 24.6 221 24.6"></polygon>
                            <path d="M173.3,57.3 L180.7,57.3 C180.7,57.2 180.7,57.1 180.7,57 C180.7,56.9 180.7,56.8 180.7,56.7 C180.7,56 180.6,55.3 180.4,54.6 C180.2,53.9 179.9,53.4 179.5,52.9 C179.1,52.4 178.6,52 178,51.7 C177.4,51.4 176.7,51.3 175.9,51.3 C175.2,51.3 174.5,51.4 173.9,51.7 C173.3,52 172.8,52.4 172.3,52.8 C171.9,53.3 171.5,53.8 171.3,54.5 C171.1,55.2 170.9,55.8 170.9,56.5 C170.9,57.3 171,58 171.3,58.7 C171.6,59.3 171.9,59.9 172.4,60.3 C172.9,60.8 173.4,61.1 174,61.4 C174.6,61.7 175.3,61.8 176,61.8 C176.9,61.8 177.7,61.6 178.4,61.3 C179.1,61 179.7,60.5 180.1,59.9 L178.7,58.7 C178.3,59.1 177.9,59.4 177.5,59.6 C177.1,59.8 176.6,59.9 176,59.9 C175.2,59.9 174.6,59.7 174.1,59.3 C173.8,58.8 173.5,58.1 173.3,57.3 Z M173.3,55.8 C173.4,55 173.7,54.4 174.1,53.9 C174.6,53.4 175.2,53.2 175.9,53.2 C176.3,53.2 176.6,53.3 176.9,53.4 C177.2,53.5 177.5,53.7 177.7,54 C177.9,54.2 178.1,54.5 178.2,54.8 C178.3,55.1 178.4,55.5 178.4,55.8 L173.3,55.8 Z M191.5,53 C191.2,52.5 190.8,52 190.3,51.7 C189.8,51.4 189.2,51.2 188.5,51.2 C188.1,51.2 187.8,51.3 187.4,51.4 C187.1,51.5 186.8,51.6 186.6,51.8 C186.4,52 186.1,52.2 186,52.4 C185.8,52.6 185.6,52.8 185.5,53 L185.5,51.5 L183.2,51.5 L183.2,61.6 L185.5,61.6 L185.5,55.9 C185.5,55.1 185.7,54.5 186.1,54 C186.5,53.6 187,53.3 187.7,53.3 C188.3,53.3 188.9,53.5 189.2,53.9 C189.6,54.3 189.7,54.9 189.7,55.7 L189.7,61.4 L192,61.4 L192,55.7 C192,54.9 192.2,54.3 192.6,53.8 C193,53.4 193.5,53.2 194.2,53.2 C194.8,53.2 195.4,53.4 195.7,53.8 C196.1,54.2 196.2,54.8 196.2,55.6 L196.2,61.3 L198.5,61.3 L198.5,54.9 C198.5,53.7 198.2,52.7 197.6,52.1 C197,51.4 196.1,51.1 195,51.1 C194.2,51.1 193.6,51.3 193,51.6 C192.4,52 191.9,52.5 191.5,53 Z M211.7,56.5 C211.7,55.7 211.6,54.9 211.3,54.3 C211,53.7 210.7,53.1 210.2,52.7 C209.8,52.2 209.3,51.9 208.7,51.7 C208.1,51.5 207.6,51.4 207,51.4 C206.2,51.4 205.5,51.6 205,52 C204.5,52.4 204,52.8 203.6,53.3 L203.6,51.6 L201.3,51.6 L201.3,64.7 L203.6,64.7 L203.6,60 C204,60.5 204.4,60.9 205,61.2 C205.5,61.6 206.2,61.7 207.1,61.7 C207.7,61.7 208.3,61.6 208.8,61.4 C209.4,61.2 209.9,60.8 210.3,60.4 C210.7,59.9 211.1,59.4 211.3,58.7 C211.5,58.1 211.7,57.3 211.7,56.5 Z M209.3,56.5 C209.3,57 209.2,57.4 209.1,57.9 C208.9,58.3 208.7,58.6 208.5,58.9 C208.2,59.2 207.9,59.4 207.6,59.5 C207.3,59.7 206.9,59.7 206.5,59.7 C206.1,59.7 205.7,59.6 205.4,59.5 C205,59.3 204.7,59.1 204.5,58.9 C204.2,58.6 204,58.3 203.9,57.9 C203.7,57.5 203.7,57.1 203.7,56.6 C203.7,56.1 203.8,55.7 203.9,55.3 C204.1,54.9 204.3,54.6 204.5,54.3 C204.8,54 205.1,53.8 205.4,53.6 C205.8,53.4 206.1,53.4 206.5,53.4 C206.9,53.4 207.3,53.5 207.6,53.6 C208,53.8 208.3,54 208.5,54.2 C208.8,54.5 209,54.8 209.1,55.2 C209.2,55.5 209.3,56 209.3,56.5 Z M224.2,56.5 C224.2,55.8 224.1,55.1 223.8,54.5 C223.5,53.9 223.2,53.3 222.7,52.8 C222.2,52.3 221.7,51.9 221,51.7 C220.4,51.4 219.6,51.3 218.9,51.3 C218.2,51.3 217.4,51.4 216.7,51.7 C216.1,52 215.5,52.4 215,52.8 C214.5,53.3 214.2,53.8 213.9,54.5 C213.6,55.1 213.5,55.8 213.5,56.5 C213.5,57.2 213.6,57.9 213.9,58.5 C214.2,59.1 214.5,59.7 215,60.2 C215.5,60.7 216.1,61 216.7,61.3 C217.4,61.6 218.1,61.7 218.8,61.7 C219.6,61.7 220.3,61.6 221,61.3 C221.7,61 222.2,60.6 222.7,60.2 C223.2,59.7 223.6,59.2 223.8,58.5 C224.1,57.9 224.2,57.2 224.2,56.5 Z M221.9,56.5 C221.9,56.9 221.8,57.4 221.7,57.8 C221.6,58.2 221.4,58.5 221.1,58.8 C220.8,59.1 220.5,59.3 220.1,59.5 C219.7,59.7 219.3,59.7 218.8,59.7 C218.4,59.7 217.9,59.6 217.6,59.5 C217.2,59.3 216.9,59.1 216.6,58.8 C216.3,58.5 216.1,58.2 216,57.8 C215.8,57.4 215.8,57 215.8,56.5 C215.8,56 215.9,55.6 216,55.3 C216.1,54.9 216.3,54.6 216.6,54.3 C216.9,54 217.2,53.8 217.6,53.6 C218,53.4 218.4,53.3 218.9,53.3 C219.4,53.3 219.8,53.4 220.1,53.6 C220.5,53.8 220.8,54 221.1,54.3 C221.4,54.6 221.6,54.9 221.7,55.3 C221.8,55.7 221.9,56.1 221.9,56.5 Z M233.8,51.4 L231.8,51.4 L229.6,58.4 L227.6,51.5 L225.2,51.5 L228.5,61.7 L230.6,61.7 L232.9,54.8 L235.2,61.7 L237.3,61.7 L240.6,51.5 L238.3,51.5 L236.2,58.4 L233.8,51.4 Z M243.8,57.3 L251.2,57.3 C251.2,57.2 251.2,57.1 251.2,57 C251.2,56.9 251.2,56.8 251.2,56.7 C251.2,56 251.1,55.3 250.9,54.6 C250.7,53.9 250.4,53.4 250,52.9 C249.6,52.4 249.1,52 248.5,51.7 C247.9,51.4 247.2,51.3 246.4,51.3 C245.7,51.3 245,51.4 244.4,51.7 C243.8,52 243.3,52.4 242.8,52.8 C242.4,53.3 242,53.8 241.8,54.5 C241.6,55.2 241.4,55.8 241.4,56.5 C241.4,57.3 241.5,58 241.8,58.7 C242.1,59.3 242.4,59.9 242.9,60.3 C243.4,60.8 243.9,61.1 244.5,61.4 C245.1,61.7 245.8,61.8 246.5,61.8 C247.4,61.8 248.2,61.6 248.9,61.3 C249.6,61 250.2,60.5 250.6,59.9 L249.2,58.7 C248.8,59.1 248.4,59.4 248,59.6 C247.6,59.8 247.1,59.9 246.5,59.9 C245.7,59.9 245.1,59.7 244.6,59.3 C244.3,58.8 243.9,58.1 243.8,57.3 Z M243.8,55.8 C243.9,55 244.2,54.4 244.6,53.9 C245.1,53.4 245.7,53.2 246.4,53.2 C246.8,53.2 247.1,53.3 247.4,53.4 C247.7,53.5 248,53.7 248.2,54 C248.4,54.2 248.6,54.5 248.7,54.8 C248.8,55.1 248.9,55.5 248.9,55.8 L243.8,55.8 Z M255.9,57.7 C255.9,57 256,56.5 256.1,56 C256.3,55.5 256.5,55.1 256.8,54.7 C257.1,54.4 257.5,54.1 257.9,54 C258.3,53.8 258.8,53.8 259.3,53.8 L259.4,53.8 L259.4,51.4 C258.5,51.4 257.8,51.6 257.2,52 C256.6,52.5 256.2,53.1 255.8,53.8 L255.8,51.5 L253.5,51.5 L253.5,61.6 L255.8,61.6 L255.8,57.7 L255.9,57.7 Z M270,53.4 L272.7,53.4 L272.7,51.4 L270,51.4 L270,48.6 L267.7,48.6 L267.7,51.4 L266.4,51.4 L266.4,53.4 L267.7,53.4 L267.7,58.7 C267.7,59.3 267.8,59.7 267.9,60.1 C268,60.5 268.2,60.8 268.5,61 C268.8,61.2 269.1,61.4 269.4,61.5 C269.8,61.6 270.1,61.7 270.6,61.7 C271,61.7 271.4,61.7 271.7,61.6 C272,61.5 272.3,61.4 272.6,61.2 L272.6,59.3 C272.1,59.5 271.7,59.6 271.2,59.6 C270.8,59.6 270.5,59.5 270.3,59.3 C270.1,59.1 270,58.8 270,58.3 L270,53.4 Z M283.5,61.5 L283.5,55.5 C283.5,54.2 283.1,53.1 282.4,52.4 C281.7,51.6 280.6,51.3 279.1,51.3 C278.3,51.3 277.6,51.4 277,51.5 C276.4,51.7 275.8,51.9 275.3,52.1 L275.9,54 C276.4,53.8 276.8,53.7 277.3,53.5 C277.7,53.4 278.3,53.3 278.8,53.3 C279.6,53.3 280.2,53.5 280.6,53.9 C281,54.3 281.2,54.8 281.2,55.5 L281.2,55.7 C280.8,55.6 280.4,55.5 280,55.4 C279.6,55.3 279.1,55.3 278.5,55.3 C277.9,55.3 277.4,55.4 276.9,55.5 C276.4,55.6 276,55.8 275.6,56.1 C275.2,56.4 275,56.7 274.8,57.1 C274.6,57.5 274.5,58 274.5,58.5 L274.5,58.5 C274.5,59 274.6,59.5 274.8,59.9 C275,60.3 275.3,60.6 275.6,60.9 C275.9,61.2 276.3,61.3 276.7,61.5 C277.1,61.6 277.6,61.7 278.1,61.7 C278.9,61.7 279.5,61.6 280,61.3 C280.5,61 281,60.7 281.3,60.3 L281.3,61.5 L283.5,61.5 L283.5,61.5 Z M281.2,57.9 C281.2,58.2 281.1,58.5 281,58.8 C280.9,59.1 280.7,59.3 280.4,59.5 C280.2,59.7 279.9,59.8 279.5,59.9 C279.2,60 278.8,60.1 278.5,60.1 C278,60.1 277.5,60 277.1,59.7 C276.7,59.4 276.5,59.1 276.5,58.6 L276.5,58.6 C276.5,58.1 276.7,57.7 277.1,57.4 C277.5,57.1 278.1,57 278.8,57 C279.2,57 279.7,57 280.1,57.1 C280.5,57.2 280.9,57.3 281.2,57.4 L281.2,57.9 L281.2,57.9 Z M288.6,61.5 L288.6,47.6 L286.3,47.6 L286.3,61.5 L288.6,61.5 Z M293.4,57.3 L300.8,57.3 C300.8,57.2 300.8,57.1 300.8,57 C300.8,56.9 300.8,56.8 300.8,56.7 C300.8,56 300.7,55.3 300.5,54.6 C300.3,53.9 300,53.4 299.6,52.9 C299.2,52.4 298.7,52 298.1,51.7 C297.5,51.4 296.8,51.3 296,51.3 C295.3,51.3 294.6,51.4 294,51.7 C293.4,52 292.9,52.4 292.4,52.8 C292,53.3 291.6,53.8 291.4,54.5 C291.2,55.1 291,55.8 291,56.5 C291,57.3 291.1,58 291.4,58.7 C291.7,59.3 292,59.9 292.5,60.3 C293,60.8 293.5,61.1 294.1,61.4 C294.7,61.7 295.4,61.8 296.1,61.8 C297,61.8 297.8,61.6 298.5,61.3 C299.2,61 299.8,60.5 300.2,59.9 L298.8,58.7 C298.4,59.1 298,59.4 297.6,59.6 C297.2,59.8 296.7,59.9 296.1,59.9 C295.3,59.9 294.7,59.7 294.2,59.3 C293.9,58.8 293.6,58.1 293.4,57.3 Z M293.4,55.8 C293.5,55 293.8,54.4 294.2,53.9 C294.7,53.4 295.3,53.2 296,53.2 C296.4,53.2 296.7,53.3 297,53.4 C297.3,53.5 297.6,53.7 297.8,54 C298,54.2 298.2,54.5 298.3,54.8 C298.4,55.1 298.5,55.5 298.5,55.8 L293.4,55.8 Z M305.5,55.8 C305.5,55 305.7,54.4 306.1,54 C306.5,53.6 307.1,53.3 307.7,53.3 C308.4,53.3 308.9,53.5 309.3,53.9 C309.7,54.3 309.9,54.9 309.9,55.7 L309.9,61.4 L312.2,61.4 L312.2,55 C312.2,53.8 311.9,52.9 311.3,52.2 C310.7,51.5 309.8,51.1 308.6,51.1 C308.2,51.1 307.8,51.2 307.5,51.3 C307.2,51.4 306.9,51.5 306.6,51.7 C306.3,51.9 306.1,52.1 305.9,52.3 C305.7,52.5 305.5,52.7 305.4,53 L305.4,51.4 L303.1,51.4 L303.1,61.5 L305.4,61.5 L305.4,55.8 L305.5,55.8 Z M317.8,53.4 L320.5,53.4 L320.5,51.4 L317.8,51.4 L317.8,48.6 L315.5,48.6 L315.5,51.4 L314.2,51.4 L314.2,53.4 L315.5,53.4 L315.5,58.7 C315.5,59.3 315.6,59.7 315.7,60.1 C315.8,60.5 316,60.8 316.3,61 C316.6,61.2 316.9,61.4 317.2,61.5 C317.5,61.6 317.9,61.7 318.4,61.7 C318.8,61.7 319.2,61.7 319.5,61.6 C319.8,61.5 320.1,61.4 320.4,61.2 L320.4,59.3 C319.9,59.5 319.5,59.6 319,59.6 C318.6,59.6 318.3,59.5 318.1,59.3 C317.9,59.1 317.8,58.8 317.8,58.3 L317.8,53.4 Z M330,58.5 L330,58.5 C330,58 329.9,57.6 329.7,57.3 C329.5,57 329.3,56.7 329,56.5 C328.7,56.3 328.4,56.1 328,55.9 C327.6,55.7 327.3,55.6 326.9,55.5 C326.6,55.4 326.3,55.3 326,55.2 C325.7,55.1 325.5,55 325.3,54.9 C325.1,54.8 324.9,54.7 324.8,54.5 C324.7,54.4 324.6,54.2 324.6,54 L324.6,54 C324.6,53.7 324.7,53.5 325,53.3 C325.3,53.1 325.6,53 326,53 C326.4,53 326.9,53.1 327.4,53.3 C327.9,53.5 328.4,53.7 328.9,54 L329.8,52.4 C329.3,52 328.7,51.8 328,51.6 C327.4,51.4 326.7,51.3 326.1,51.3 C325.6,51.3 325.1,51.4 324.7,51.5 C324.3,51.6 323.9,51.8 323.6,52.1 C323.3,52.4 323,52.7 322.8,53.1 C322.6,53.5 322.5,53.9 322.5,54.4 L322.5,54.4 C322.5,54.9 322.6,55.3 322.8,55.6 C323,55.9 323.2,56.2 323.5,56.4 C323.8,56.6 324.1,56.8 324.5,56.9 C324.9,57 325.3,57.2 325.6,57.3 C325.9,57.4 326.2,57.5 326.4,57.6 C326.7,57.7 326.9,57.8 327.1,57.9 C327.3,58 327.5,58.1 327.6,58.3 C327.7,58.4 327.8,58.6 327.8,58.8 L327.8,58.8 C327.8,59.1 327.7,59.4 327.4,59.6 C327.1,59.8 326.8,59.9 326.3,59.9 C325.8,59.9 325.2,59.8 324.7,59.6 C324.1,59.4 323.6,59.1 323,58.7 L322,60.3 C322.6,60.8 323.3,61.2 324.1,61.4 C324.9,61.7 325.6,61.8 326.3,61.8 C326.8,61.8 327.3,61.7 327.8,61.6 C328.3,61.5 328.7,61.3 329,61 C329.3,60.7 329.6,60.4 329.8,60 C330,59.6 330,59.1 330,58.5 Z" id="Shape_1_" fill="#161F35"></path>
                        </g>
                    </g>
                </g>
            </g>
        </g>
    </g>
</svg>